PathFileType	4	(X/Y/Z)	\\Move.snu.ac.kr\motion\Animal\091204_091205_Bird\091205_bird\Project 2\Capture day 2\Session 1\pigeon_009.trc
DataRate	CameraRate	NumFrames	NumMarkers	Units	OrigDataRate	OrigDataStartFrame	OrigNumFrames
240.0	240.0	14	14	mm	240.0	145	2292
Frame#	Time	14MarkersBird:Head			14MarkersBird:C_back			14MarkersBird:Spine			14MarkersBird:L-shoulder			14MarkersBird:L-elbow			14MarkersBird:L-wrist			14MarkersBird:L-hand			14MarkersBird:R-shoulder			14MarkersBird:R-elbow			14MarkersBird:R-Wrist			14MarkersBird:R-hand			14MarkersBird:C_Tail			14MarkersBird:L-Tale			14MarkersBird:R-Tale			
		X1	Y1	Z1	X2	Y2	Z2	X3	Y3	Z3	X4	Y4	Z4	X5	Y5	Z5	X6	Y6	Z6	X7	Y7	Z7	X8	Y8	Z8	X9	Y9	Z9	X10	Y10	Z10	X11	Y11	Z11	X12	Y12	Z12	X13	Y13	Z13	X14	Y14	Z14	

911	3.792	261.79022	2326.97314	-2373.92065	297.54968	2337.53467	-2327.92749	325.15359	2333.53271	-2281.06909	261.41809	2334.37769	-2337.67993	267.20255	2347.48169	-2299.61646	233.06145	2350.69775	-2325.91577	219.21947	2328.33154	-2326.18896	297.65512	2316.79272	-2360.08569	334.94391	2318.94092	-2347.25757	313.34042	2311.39893	-2384.43970	300.37158	2275.44849	-2390.20215	366.11700	2280.64136	-2175.67188	277.57477	2321.58838	-2185.77124	414.75107	2258.57593	-2265.62256	
912	3.796	254.76971	2323.17065	-2382.77148	290.43295	2333.11499	-2337.11133	317.81857	2329.96167	-2289.88550	254.84708	2330.86646	-2346.83936	265.89343	2348.26392	-2310.57715	229.97600	2357.24878	-2332.75146	214.61052	2337.97266	-2325.00317	290.61029	2313.88989	-2368.35962	327.53769	2323.47095	-2353.30005	313.88882	2315.85913	-2393.47559	310.20996	2278.77002	-2398.28369	358.19849	2275.59009	-2184.75854	270.49838	2318.77002	-2194.43701	407.39447	2254.83057	-2275.06958	
913	3.800	247.76741	2319.42334	-2391.59082	283.30997	2328.54712	-2346.19897	310.57846	2326.24463	-2298.51880	248.35764	2327.25806	-2356.26367	264.73163	2347.48218	-2322.55078	228.54593	2362.52026	-2340.73877	213.58368	2348.71680	-2324.51221	283.35425	2311.28638	-2376.65967	317.20419	2324.48706	-2361.91724	312.86014	2320.85449	-2401.08350	320.40192	2285.32446	-2404.72119	350.18137	2270.85059	-2193.57642	262.89096	2316.43872	-2203.45996	400.65143	2251.79761	-2284.78223	
914	3.804	240.78230	2315.73315	-2400.40283	276.17865	2323.93018	-2355.16943	303.40060	2322.34521	-2307.01733	241.91527	2323.50879	-2365.73389	263.21393	2345.05591	-2334.85864	228.28427	2366.03638	-2349.92798	216.14977	2359.72510	-2326.91650	275.93515	2308.74951	-2384.95483	305.78830	2324.95264	-2370.77441	309.73264	2326.00098	-2407.47974	328.83679	2295.87720	-2409.52710	342.12411	2266.50317	-2202.08447	254.82608	2314.52637	-2212.83569	394.49347	2249.44922	-2294.71118	
915	3.808	233.81096	2312.09595	-2409.24683	269.10059	2319.32642	-2363.99609	296.24017	2318.21167	-2315.43652	235.47176	2319.60327	-2374.98853	260.85406	2341.35645	-2347.05273	228.39871	2367.81592	-2360.04541	221.09286	2369.87207	-2333.52783	268.50287	2305.96289	-2393.20264	293.74933	2324.53882	-2379.73340	304.64828	2330.76514	-2413.22803	333.48026	2309.87183	-2412.97729	333.97806	2262.47021	-2210.25073	246.38506	2312.95093	-2222.54004	388.73676	2247.58276	-2304.80444	
916	3.813	226.86465	2308.50073	-2418.15234	262.16101	2314.76855	-2372.65039	289.07120	2313.80493	-2323.82275	228.95808	2315.58276	-2383.88696	257.36017	2336.96899	-2359.00122	228.13039	2368.21313	-2370.67578	226.81783	2378.07275	-2344.31812	261.21576	2302.75488	-2401.46265	281.65063	2323.19971	-2388.74219	298.23187	2334.73218	-2418.96484	333.03442	2325.59912	-2415.60669	325.71384	2258.64697	-2218.06592	237.64632	2311.59253	-2232.52563	383.16095	2245.96265	-2315.00244	
917	3.817	219.97018	2304.92627	-2427.12476	255.39993	2310.27124	-2381.13330	281.94339	2309.14600	-2332.19043	222.33826	2311.53467	-2392.47729	252.66492	2332.45166	-2370.79370	226.90041	2367.61206	-2381.50684	231.91331	2383.54395	-2358.23730	254.16982	2299.15747	-2409.84155	269.94147	2321.05005	-2397.93604	291.15900	2337.64331	-2425.23462	327.48505	2340.85474	-2418.28906	317.41434	2255.03003	-2225.54419	228.73924	2310.32642	-2242.74316	377.59671	2244.38672	-2325.24609	
918	3.821	213.15822	2301.33398	-2436.14404	248.80998	2305.84033	-2389.47266	275.06625	2304.40918	-2340.48120	215.65865	2307.54980	-2400.90991	246.84747	2328.21655	-2382.49194	224.25713	2366.24731	-2392.33496	235.11386	2386.05176	-2373.73730	247.40405	2295.27881	-2418.37451	258.84821	2318.16797	-2407.62427	283.93939	2339.22705	-2432.43701	318.14490	2353.62036	-2422.26050	309.23849	2251.70459	-2232.72656	219.89810	2309.06226	-2253.13672	371.93741	2242.65210	-2335.47314	
919	3.825	206.44046	2297.68311	-2445.15649	242.35446	2301.47534	-2397.71729	268.77780	2299.90503	-2348.56396	209.03000	2303.66772	-2409.31006	240.08008	2324.48071	-2393.85864	219.77954	2364.17627	-2402.86108	235.19284	2386.05542	-2389.20215	240.93655	2291.20532	-2427.04224	248.50784	2314.51587	-2418.13525	277.01746	2339.05737	-2440.78320	307.23972	2362.42065	-2428.78394	301.30319	2248.70605	-2239.71265	211.41795	2307.72778	-2263.60376	366.09244	2240.49854	-2345.57495	
920	3.829	199.81116	2293.96069	-2454.09619	235.99266	2297.17700	-2405.92114	263.32495	2295.88672	-2356.33618	202.57034	2299.88330	-2417.76294	232.54388	2321.24365	-2404.37622	213.08536	2361.37183	-2412.57178	231.06693	2384.47021	-2403.21802	234.75883	2286.96313	-2435.80029	236.90155	2311.18433	-2428.14282	270.92468	2336.59521	-2450.25659	297.25925	2366.31738	-2438.59277	293.62091	2245.93726	-2246.67847	203.51480	2306.18896	-2273.97974	359.96173	2237.58887	-2355.36426	
921	3.833	193.27011	2290.19482	-2462.93726	229.68391	2292.94507	-2414.13794	258.68625	2292.40454	-2363.81763	196.33430	2296.15967	-2426.35034	224.27585	2318.29517	-2413.60864	203.96381	2357.79053	-2420.87939	222.08171	2382.14771	-2414.73169	228.80481	2282.53149	-2444.61572	233.85065	2308.95068	-2437.59204	266.22604	2331.39307	-2460.63062	290.23251	2364.78076	-2451.57324	286.17804	2243.23315	-2253.85229	196.21727	2304.21680	-2284.07886	353.45892	2233.57495	-2364.63770	
922	3.838	186.82291	2286.43408	-2471.71069	223.38757	2288.77930	-2422.42114	254.60837	2289.34106	-2371.14429	190.26204	2292.40161	-2435.10889	215.14044	2315.34058	-2421.53174	192.51009	2353.32593	-2427.46509	208.26245	2379.35889	-2423.19458	222.96672	2277.85669	-2453.50586	230.79974	2305.64380	-2447.04126	263.18665	2323.30078	-2471.59131	287.00812	2357.67358	-2466.90747	279.05560	2240.47632	-2261.45557	189.37547	2301.55054	-2293.75000	346.53336	2228.25684	-2373.29688	
923	3.842	180.46136	2282.71802	-2480.47485	217.06294	2284.67920	-2430.82471	250.72249	2286.49683	-2378.51318	184.20041	2288.48193	-2443.98730	204.98288	2312.10132	-2428.53857	179.11336	2347.72070	-2432.54541	190.35376	2375.55298	-2428.73657	217.15419	2272.88794	-2462.56323	230.54184	2301.61816	-2455.59204	261.41849	2312.52441	-2482.89722	286.90335	2345.23633	-2483.55811	272.38913	2237.59937	-2269.62451	182.75311	2297.99707	-2302.92725	339.19238	2221.75537	-2381.42676	
924	3.846	174.15463	2279.04907	-2489.28003	210.67188	2280.64502	-2439.39868	246.63348	2283.65796	-2386.13721	177.99486	2284.31372	-2452.89258	193.79985	2308.27734	-2435.17212	164.32059	2340.56592	-2436.86670	169.61688	2369.58765	-2432.30615	211.31010	2267.64063	-2471.89893	229.50684	2294.48315	-2464.59863	259.88803	2299.50513	-2494.45557	288.04065	2328.02271	-2500.70923	266.20828	2234.53540	-2278.36108	176.15218	2293.53784	-2311.67432	331.53253	2214.53540	-2389.25488	
